<?xml version="1.0" standalone="no"?>
<!DOCTYPE svg PUBLIC "-//W3C//DTD SVG 20010904//EN"
 "http://www.w3.org/TR/2001/REC-SVG-20010904/DTD/svg10.dtd">
<svg version="1.0" xmlns="http://www.w3.org/2000/svg"
 width="647.000000pt" height="647.000000pt" viewBox="0 0 647.000000 647.000000"
 preserveAspectRatio="xMidYMid meet">
<metadata>
Created by potrace 1.14, written by Peter Selinger 2001-2017
</metadata>
<g transform="translate(0.000000,647.000000) scale(0.100000,-0.100000)"
fill="#000000" stroke="none">
<path d="M3090 6453 c-71 -14 -175 -77 -250 -152 -99 -97 -158 -189 -214 -332
-24 -63 -61 -157 -81 -209 -21 -52 -66 -169 -101 -260 -36 -91 -68 -174 -73
-185 -5 -11 -64 -162 -131 -335 -68 -173 -128 -328 -135 -345 -7 -16 -31 -76
-52 -132 -21 -57 -41 -103 -44 -103 -3 0 -30 30 -59 66 -143 177 -302 257
-510 258 -263 1 -447 -117 -594 -378 -27 -48 -44 -91 -40 -97 4 -7 3 -9 -3 -6
-9 6 -46 -56 -138 -228 -21 -38 -52 -97 -71 -130 -64 -117 -156 -291 -194
-370 -58 -118 -69 -171 -65 -305 4 -159 15 -189 150 -420 240 -412 396 -617
545 -716 215 -144 474 -106 682 100 125 123 152 177 378 773 21 57 43 110 48
119 9 16 14 9 77 -98 5 -10 69 -112 140 -228 72 -116 141 -230 155 -254 96
-167 222 -365 259 -407 135 -153 367 -231 571 -192 211 40 349 142 470 349 63
109 496 815 513 838 10 13 31 -33 112 -242 168 -435 184 -473 230 -542 160
-240 420 -353 641 -280 133 45 293 180 403 342 68 101 200 303 221 339 140
242 171 301 190 372 23 85 29 226 11 285 -5 17 -8 32 -5 32 7 0 -38 112 -64
160 -75 139 -94 173 -137 255 -124 236 -313 576 -360 650 -17 28 -64 80 -103
116 -123 114 -268 168 -435 163 -103 -3 -127 -7 -205 -34 -114 -40 -215 -118
-321 -248 -49 -60 -52 -62 -60 -40 -5 13 -77 199 -161 413 -83 215 -155 399
-160 410 -10 22 -198 501 -236 603 -13 34 -20 62 -16 62 4 0 2 4 -4 8 -6 4
-25 45 -44 92 -62 160 -193 324 -314 395 -90 53 -143 67 -271 70 -66 2 -131 1
-145 -2z m166 -615 c4 -13 18 -48 31 -78 37 -83 40 -89 73 -175 17 -44 37 -93
44 -110 19 -43 258 -652 486 -1240 51 -132 114 -294 140 -360 27 -66 45 -122
41 -125 -4 -3 -26 -36 -49 -75 -24 -38 -47 -77 -52 -85 -5 -8 -81 -132 -168
-275 -436 -716 -564 -925 -566 -925 -3 0 -262 421 -301 488 -5 10 -20 33 -31
52 -313 510 -494 813 -494 824 0 8 29 88 64 178 35 90 132 339 216 553 84 215
158 404 165 420 7 17 52 131 100 255 224 578 274 700 286 700 4 0 11 -10 15
-22z m-1783 -1665 c24 -38 96 -154 160 -259 l117 -190 -34 -85 c-34 -86 -96
-243 -275 -701 -55 -142 -110 -277 -122 -300 -26 -51 -100 -158 -110 -158 -11
0 -123 132 -195 230 -142 193 -202 367 -170 495 40 162 526 1035 576 1035 5 0
29 -30 53 -67z m3633 5 c117 -159 422 -718 506 -926 74 -184 -27 -421 -314
-741 l-46 -51 -37 51 c-74 104 -101 162 -255 564 -23 61 -48 124 -55 140 -34
81 -188 481 -188 492 0 6 18 40 40 75 22 35 84 135 138 223 140 228 144 235
155 235 6 0 31 -28 56 -62z"/>
<path d="M3225 1420 l-119 -5 -1 -82 c-1 -96 -18 -85 143 -85 52 0 96 3 99 6
5 5 5 169 0 170 -1 1 -56 -1 -122 -4z"/>
<path d="M1150 1263 l0 -157 -27 27 c-68 64 -180 84 -277 50 -64 -23 -130 -88
-164 -161 -24 -51 -27 -68 -27 -172 0 -106 2 -119 29 -173 54 -110 134 -167
248 -175 76 -5 131 15 186 69 l32 31 0 -44 0 -44 118 0 117 1 1 453 0 452
-118 0 -118 0 0 -157z m-57 -285 c112 -79 53 -285 -80 -280 -77 3 -133 71
-133 162 0 111 124 180 213 118z"/>
<path d="M2265 968 l0 -453 118 -1 117 0 0 40 0 40 28 -26 c51 -48 91 -63 177
-63 92 0 134 16 195 75 109 105 136 311 60 460 -87 171 -313 214 -435 82 l-24
-25 0 104 c0 57 0 130 0 162 l-1 57 -117 0 -118 0 0 -452z m449 9 c31 -21 56
-76 56 -127 0 -115 -98 -184 -192 -136 -53 27 -81 72 -80 133 3 126 116 195
216 130z"/>
<path d="M4745 1273 c1 -82 0 -151 -2 -155 -2 -5 -19 6 -36 22 -49 46 -105 64
-184 58 -84 -6 -137 -32 -191 -94 -62 -70 -85 -139 -85 -254 0 -125 26 -194
97 -266 66 -66 131 -89 223 -81 64 6 97 22 154 74 l26 24 -1 -43 -1 -43 118 0
117 -1 0 73 c0 40 1 183 1 318 0 135 -1 306 -1 380 l0 135 -118 0 -118 0 1
-147z m-57 -294 c32 -20 64 -91 61 -136 -4 -57 -36 -110 -81 -132 -91 -45
-198 35 -192 144 2 57 18 89 56 118 50 38 102 40 156 6z"/>
<path d="M1735 1191 c-143 -37 -245 -174 -247 -333 -2 -168 73 -281 224 -336
85 -32 223 -27 298 10 30 15 72 44 92 65 l37 38 -64 53 -64 52 -46 -31 c-80
-54 -191 -38 -235 34 -11 17 -17 33 -14 36 3 3 103 6 222 7 119 1 220 2 223 3
7 1 3 92 -5 137 -22 122 -96 213 -203 253 -51 19 -165 25 -218 12z m155 -183
c23 -15 54 -74 47 -92 -4 -9 -35 -12 -111 -11 -58 0 -108 4 -111 7 -13 13 25
79 57 98 35 22 81 21 118 -2z"/>
<path d="M3799 1168 c-27 -16 -52 -35 -55 -43 -3 -7 -11 -16 -18 -18 -10 -4
-13 6 -12 36 l1 42 -117 1 -118 1 0 -337 0 -337 117 1 118 1 0 209 1 209 32
28 c41 37 90 39 129 5 l28 -24 3 -214 3 -214 114 0 c96 0 115 2 119 15 2 9 3
125 2 257 -2 239 -3 242 -29 296 -14 29 -39 63 -54 74 -72 53 -182 58 -264 12z"/>
<path d="M5321 1179 c-94 -33 -162 -95 -209 -189 -23 -47 -27 -68 -27 -140 0
-76 4 -93 33 -152 38 -77 91 -128 172 -167 48 -22 68 -26 160 -26 99 0 109 2
172 33 175 86 250 286 171 453 -38 80 -89 131 -172 172 -58 28 -76 32 -156 34
-66 1 -104 -4 -144 -18z m192 -194 c134 -64 89 -285 -58 -285 -99 0 -168 105
-135 206 11 31 53 77 80 87 29 11 82 7 113 -8z"/>
<path d="M3112 851 l3 -336 115 0 115 0 0 335 0 335 -118 1 -117 1 2 -336z"/>
<path d="M2178 333 c-19 -5 -20 -6 -21 -70 0 -40 -1 -41 -21 -27 -25 17 -85
18 -107 1 -45 -35 -66 -117 -41 -164 31 -56 91 -77 145 -49 20 11 27 12 27 3
0 -8 13 -12 32 -12 l33 1 0 154 c0 139 -5 173 -25 169 -3 -1 -13 -3 -22 -6z
m-52 -142 c13 -1 23 -22 30 -59 6 -30 -36 -73 -65 -65 -26 7 -39 22 -45 55 -6
33 26 78 52 73 9 -2 22 -4 28 -4z"/>
<path d="M2568 332 c-16 -3 -18 -19 -18 -158 0 -85 3 -155 8 -155 37 -7 62 -3
62 9 0 10 5 10 22 -2 29 -21 63 -20 98 1 69 40 74 161 9 207 -29 20 -92 21
-109 1 -19 -23 -26 -10 -23 43 4 52 -7 63 -49 54z m140 -152 c43 -40 18 -110
-39 -110 -56 0 -71 91 -19 117 32 16 33 16 58 -7z"/>
<path d="M2847 320 c-7 -28 7 -45 39 -46 27 0 30 3 32 30 2 29 0 31 -32 31
-23 0 -36 -5 -39 -15z"/>
<path d="M3420 276 c0 -57 -1 -58 -18 -43 -29 26 -92 22 -124 -8 -47 -44 -50
-141 -4 -184 31 -30 89 -38 120 -18 19 13 25 14 29 3 3 -7 18 -12 34 -11 l28
1 0 157 c0 86 -2 157 -5 158 -59 9 -60 8 -60 -55z m-27 -92 c10 -5 20 -26 23
-45 5 -27 1 -38 -18 -56 -21 -20 -26 -20 -55 -8 -23 10 -33 21 -34 37 -4 71
32 103 84 72z"/>
<path d="M4289 332 l-26 -3 0 -157 0 -157 33 -1 c33 0 34 1 34 37 0 62 22 66
54 10 29 -49 34 -52 98 -42 5 1 -7 22 -26 48 -60 86 -60 85 -16 132 22 23 40
44 40 46 0 3 -16 5 -35 5 -29 0 -43 -8 -75 -42 l-40 -43 0 82 c0 45 -3 83 -7
85 -5 2 -20 2 -34 0z"/>
<path d="M3629 248 c-141 -35 -115 -237 31 -238 47 0 98 33 116 75 39 94 -46
188 -147 163z m53 -57 c17 -2 38 -35 38 -61 0 -33 -42 -72 -68 -63 -32 11 -52
36 -52 64 0 32 33 69 58 64 9 -2 20 -4 24 -4z"/>
<path d="M3945 240 c-28 -14 -35 -15 -31 -4 4 10 -3 14 -29 14 l-35 0 0 -118
0 -117 30 -1 c17 -1 30 1 31 5 1 3 2 38 3 76 1 80 8 95 41 95 33 0 38 -13 39
-98 l1 -75 33 -2 32 -1 0 76 c0 81 9 100 46 100 27 0 34 -23 34 -110 0 -66 0
-66 28 -64 15 1 30 2 34 3 3 0 5 41 4 90 -3 112 -19 141 -74 141 -21 0 -48 -7
-61 -16 -15 -11 -25 -13 -30 -6 -16 26 -58 31 -96 12z"/>
<path d="M4952 249 c-107 -23 -132 -163 -39 -219 50 -31 103 -25 156 17 2 1
-4 12 -13 22 -16 18 -20 18 -52 5 -33 -14 -36 -13 -60 11 -32 32 -29 71 8 98
25 19 28 19 52 3 24 -15 27 -15 47 5 18 18 19 23 8 34 -23 21 -72 32 -107 24z"/>
<path d="M724 223 c4 -15 20 -68 35 -118 28 -86 31 -90 59 -91 29 -1 31 2 49
63 10 34 21 63 25 63 3 0 15 -28 26 -62 18 -58 21 -63 48 -63 28 0 30 4 66
110 20 61 37 114 37 118 1 5 -14 7 -31 5 -31 -3 -34 -7 -53 -72 l-21 -70 -21
70 c-19 64 -22 69 -50 72 -30 3 -31 1 -48 -62 -10 -37 -21 -66 -24 -66 -3 0
-13 28 -21 63 -15 59 -16 62 -49 65 -31 3 -33 2 -27 -25z"/>
<path d="M1106 203 c8 -27 24 -80 35 -120 21 -68 23 -72 50 -71 16 1 29 1 29
2 0 1 11 32 24 69 l23 68 16 -43 c9 -24 19 -56 23 -71 6 -24 10 -27 37 -24 31
3 33 7 64 108 18 57 33 110 33 117 0 7 -13 12 -30 12 -31 0 -31 0 -56 -102 -7
-30 -24 -38 -24 -12 0 8 -7 37 -16 65 -14 43 -20 49 -44 49 -26 0 -30 -6 -51
-67 l-22 -68 -21 68 c-19 65 -21 67 -52 67 l-33 0 15 -47z"/>
<path d="M1470 245 c0 -4 16 -58 36 -121 31 -102 37 -114 58 -114 30 0 39 12
62 84 l18 59 24 -71 c23 -69 25 -72 53 -70 28 2 31 7 64 114 19 62 35 115 35
119 0 3 -14 5 -32 3 -28 -3 -32 -8 -45 -53 -23 -83 -24 -83 -47 -15 -18 57
-24 65 -48 68 -23 3 -30 -2 -42 -33 -8 -19 -18 -52 -22 -73 l-8 -37 -22 70
c-20 65 -24 70 -53 73 -17 2 -31 0 -31 -3z"/>
<path d="M2318 229 c-75 -56 -51 -193 38 -215 60 -15 148 22 123 53 -12 14
-41 18 -53 6 -14 -14 -50 -13 -68 3 -31 29 -21 35 50 34 102 -2 95 -5 89 43
-11 85 -111 127 -179 76z m100 -41 c25 -25 13 -38 -33 -38 -48 0 -55 9 -29 34
18 19 45 21 62 4z"/>
<path d="M2852 133 l3 -118 28 -2 c19 -1 27 3 28 15 4 47 4 199 1 210 -2 6
-17 12 -33 12 l-30 0 3 -117z"/>
<path d="M2979 233 c-4 -90 -3 -187 2 -201 3 -10 18 -17 35 -18 l29 -1 0 76
c-1 84 6 101 41 101 32 0 42 -24 40 -98 -1 -34 0 -65 3 -70 3 -4 18 -8 34 -9
l27 -2 0 98 c0 84 -3 100 -20 119 -25 26 -75 29 -108 6 -17 -12 -22 -12 -20
-2 2 8 -9 14 -29 16 -26 3 -33 -1 -34 -15z"/>
<path d="M4541 232 c-26 -20 -31 -76 -10 -97 8 -8 32 -21 54 -28 45 -16 61
-47 23 -47 -13 0 -35 7 -50 14 -25 13 -29 13 -38 -4 -15 -27 -13 -30 25 -46
64 -27 127 -11 143 35 15 43 -2 69 -63 96 -35 15 -54 29 -50 36 7 11 45 8 76
-5 11 -5 19 1 26 17 10 22 8 26 -13 36 -37 17 -99 13 -123 -7z"/>
<path d="M5171 237 c-84 -43 -84 -169 0 -213 60 -31 142 -5 172 53 40 78 -18
173 -105 173 -24 0 -54 -6 -67 -13z m106 -66 c14 -18 17 -60 5 -78 -4 -6 -20
-16 -35 -22 -22 -9 -31 -7 -53 13 -23 19 -26 28 -20 58 10 54 71 71 103 29z"/>
<path d="M5408 238 c-3 -11 -3 -152 1 -209 1 -12 10 -16 31 -15 32 1 34 5 30
93 -2 53 14 83 44 83 30 0 36 -16 36 -100 0 -70 7 -82 46 -76 16 2 19 13 21
67 3 93 9 109 38 109 34 0 44 -25 42 -105 -2 -66 -1 -68 23 -70 14 -1 30 -1
35 1 8 4 11 89 6 176 -3 50 -92 78 -133 41 -17 -15 -19 -15 -36 0 -23 21 -71
22 -100 1 -20 -14 -22 -14 -22 0 0 20 -56 22 -62 4z"/>
<path d="M1860 50 c0 -33 2 -35 36 -36 34 -1 35 -1 32 34 -3 33 -6 36 -35 37
-31 1 -33 -1 -33 -35z"/>
<path d="M4742 50 c3 -32 6 -35 33 -35 27 0 30 4 33 33 2 17 0 32 -5 33 -65 6
-64 7 -61 -31z"/>
</g>
</svg>
